<svg xmlns="http://www.w3.org/2000/svg" viewBox="0 0 1200 675" role="img">
  <defs>
    <linearGradient id="bg" x1="0" x2="1" y1="0" y2="1">
      <stop offset="0" stop-color="#f8fafc"/>
      <stop offset=".5" stop-color="#e0f2fe"/>
      <stop offset="1" stop-color="#f1f5f9"/>
    </linearGradient>
  </defs>
  <rect width="1200" height="675" fill="url(#bg)"/>
  <path d="M-80 610 640-110M280 760 1000 40" stroke="#1d4ed8" stroke-opacity=".16" stroke-width="4"/>
  <rect x="150" y="130" width="900" height="415" rx="34" fill="#ffffff" fill-opacity=".75" stroke="#cbd5e1" stroke-width="3"/>
  <circle cx="315" cy="300" r="104" fill="#004329"/>
  <path d="M286 260c16-30 74-31 92 0 17 29-1 56-34 75-17 10-22 24-22 43" fill="none" stroke="#ffffff" stroke-width="22" stroke-linecap="round"/>
  <circle cx="323" cy="430" r="13" fill="#ffffff"/>
  <rect x="510" y="210" width="330" height="34" rx="17" fill="#004329"/>
  <rect x="510" y="295" width="410" height="26" rx="13" fill="#64748b" fill-opacity=".42"/>
  <rect x="510" y="350" width="360" height="26" rx="13" fill="#64748b" fill-opacity=".32"/>
  <rect x="510" y="405" width="280" height="26" rx="13" fill="#64748b" fill-opacity=".28"/>
</svg>
