<svg xmlns="http://www.w3.org/2000/svg" viewBox="0 0 1200 675" role="img">
  <defs>
    <linearGradient id="bg" x1="0" x2="1" y1="0" y2="1">
      <stop offset="0" stop-color="#f8fafc"/>
      <stop offset="1" stop-color="#dbeafe"/>
    </linearGradient>
    <pattern id="grid" width="76" height="76" patternUnits="userSpaceOnUse">
      <path d="M76 0H0v76" fill="none" stroke="#0f172a" stroke-opacity=".08"/>
    </pattern>
  </defs>
  <rect width="1200" height="675" fill="url(#bg)"/>
  <rect width="1200" height="675" fill="url(#grid)"/>
  <path d="M-80 580 640-140M420 770 1240-50" stroke="#1d4ed8" stroke-opacity=".18" stroke-width="4"/>
  <rect x="190" y="105" width="340" height="430" rx="22" fill="#ffffff" stroke="#cbd5e1" stroke-width="3"/>
  <rect x="250" y="175" width="220" height="26" rx="13" fill="#004329"/>
  <rect x="250" y="250" width="220" height="18" rx="9" fill="#64748b" fill-opacity=".55"/>
  <rect x="250" y="300" width="180" height="18" rx="9" fill="#64748b" fill-opacity=".4"/>
  <rect x="250" y="350" width="230" height="18" rx="9" fill="#64748b" fill-opacity=".45"/>
  <rect x="630" y="156" width="360" height="90" rx="18" fill="#004329"/>
  <rect x="630" y="290" width="430" height="34" rx="17" fill="#b80008" fill-opacity=".86"/>
  <rect x="630" y="362" width="330" height="34" rx="17" fill="#1d4ed8" fill-opacity=".76"/>
</svg>
